<?xml version="1.0" encoding="UTF-8"?>
<svg version="1.1" xmlns="http://www.w3.org/2000/svg" width="1664" height="928">
<path d="M0 0 C549.12 0 1098.24 0 1664 0 C1664 306.24 1664 612.48 1664 928 C1114.88 928 565.76 928 0 928 C0 621.76 0 315.52 0 0 Z " fill="#F7F7F4" transform="translate(0,0)"/>
<path d="M0 0 C1.53916895 -0.00158567 3.07833705 -0.00579219 4.61749268 -0.01239014 C8.76741071 -0.02258453 12.91632214 0.0042763 17.06607914 0.03866386 C21.44301234 0.06900711 25.81993968 0.06639476 30.19696045 0.06799316 C37.55725967 0.0753612 44.91718408 0.10518226 52.27734375 0.15039062 C61.65075088 0.20785711 71.02385472 0.22882039 80.39741898 0.23775482 C88.53303063 0.24579804 96.66857949 0.27080387 104.80414486 0.29844856 C107.37908469 0.30654599 109.95402246 0.31244799 112.52896881 0.31803894 C169.35881741 0.46256532 169.35881741 0.46256532 190.33105469 7.71289062 C192.21644808 8.29821867 194.10191183 8.88333843 195.98901367 9.46313477 C225.72992913 18.61831372 250.46234186 32.2531315 272.33105469 54.71289062 C272.84925781 55.19757813 273.36746094 55.68226563 273.90136719 56.18164062 C289.63860921 71.14260614 301.04083129 93.8532197 306.33105469 114.71289062 C306.54826172 115.56625 306.76546875 116.41960937 306.98925781 117.29882812 C312.3478593 139.09146926 313.40247752 161.5726347 309.33105469 183.71289062 C309.18571289 184.5132373 309.04037109 185.31358398 308.890625 186.13818359 C304.55185795 208.93619607 294.61428093 231.12110822 279.33105469 248.71289062 C278.6671875 249.50953125 278.00332031 250.30617188 277.31933594 251.12695312 C266.73161228 263.45646496 254.74680609 272.37880699 240.33105469 279.71289062 C239.64785156 280.06287109 238.96464844 280.41285156 238.26074219 280.7734375 C234.30345726 282.79345842 230.32736754 284.77093235 226.33105469 286.71289062 C227.30042969 286.99261719 228.26980469 287.27234375 229.26855469 287.56054688 C247.86150841 293.06228038 268.50412918 300.88123584 283.33105469 313.71289062 C283.97945312 314.26589844 284.62785156 314.81890625 285.29589844 315.38867188 C286.65534429 316.56546665 288.00436603 317.75440973 289.34277344 318.95507812 C290.60978736 320.07522796 291.90234552 321.16756745 293.22558594 322.22070312 C308.62942556 334.70691121 321.05179057 355.14810976 327.33105469 373.71289062 C327.71132812 374.74929688 328.09160156 375.78570313 328.48339844 376.85351562 C340.37903649 411.41956419 339.39919674 449.75251446 326.33105469 483.71289062 C325.91855469 484.83824219 325.50605469 485.96359375 325.08105469 487.12304688 C317.64504532 506.30691826 305.51813358 523.00991796 291.33105469 537.71289062 C290.66589844 538.42960938 290.00074219 539.14632812 289.31542969 539.88476562 C276.16917049 553.69386142 259.29081224 563.65467858 242.22265625 571.79345703 C240.96008786 572.40714218 239.70657795 573.03981872 238.46289062 573.69091797 C228.98847298 578.63524421 218.89918608 581.57308832 208.58105469 584.21289062 C207.55496094 584.49519531 206.52886719 584.7775 205.47167969 585.06835938 C178.58071401 591.94671981 151.13485057 592.33699661 123.57377982 592.28312421 C119.69354698 592.27792431 115.8133752 592.28537545 111.93314868 592.29259628 C102.78602288 592.30941303 93.63906475 592.30620337 84.49194336 592.28930664 C75.09314932 592.27226941 65.69481586 592.28841903 56.29607171 592.32052952 C48.1636883 592.34724788 40.03144813 592.35449929 31.89902526 592.34601444 C27.06781418 592.34110822 22.236882 592.34318036 17.40570641 592.36380196 C12.88173439 592.38220406 8.35843015 592.37614569 3.83449364 592.35160255 C2.18257476 592.34661562 0.53060438 592.35002907 -1.12127304 592.36275101 C-11.73967839 592.4380371 -19.51266379 591.28825393 -28.25488281 584.79101562 C-36.01153028 576.86500904 -39.18223082 568.32867942 -39.07128906 557.27148438 C-38.20482539 549.60790765 -34.49114746 543.05218961 -28.98144531 537.71289062 C-19.57283064 530.66117092 -9.4646063 530.12726247 1.87744141 530.18286133 C3.41461049 530.17574907 4.95177228 530.16687937 6.48892212 530.15640259 C10.63372829 530.1329435 14.77821787 530.13350646 18.92307425 530.13831735 C23.28122431 530.13891444 27.63925169 530.11616105 31.99734497 530.0957489 C40.2511269 530.06042052 48.50482103 530.0443382 56.75866997 530.03597373 C68.84454446 530.02301988 80.9303434 529.98453609 93.01614571 529.9418745 C93.90682208 529.93873582 94.79749845 529.93559713 95.71516502 529.93236333 C97.49280057 529.92608029 99.27043591 529.91973663 101.04807103 529.91333073 C106.21858695 529.89539311 111.38906031 529.88419215 116.55960441 529.87903368 C119.78989555 529.87516842 123.02017152 529.86753866 126.25045395 529.85922623 C127.73500329 529.85629689 129.21955709 529.85502363 130.70410919 529.8556385 C144.32893386 529.86016976 157.10326221 529.11563678 170.33105469 525.71289062 C171.51570312 525.44734375 172.70035156 525.18179688 173.92089844 524.90820312 C200.38738369 518.63178585 222.61027909 501.78190479 236.84667969 478.74023438 C242.94073594 468.29929945 245.99514783 457.51477523 248.33105469 445.71289062 C248.5334375 444.78089844 248.73582031 443.84890625 248.94433594 442.88867188 C249.56446291 437.79611398 249.51551847 432.71303148 249.51855469 427.58789062 C249.53080078 426.523125 249.54304688 425.45835937 249.55566406 424.36132812 C249.57532413 413.56139513 247.77395992 403.45048421 244.83105469 393.08789062 C244.61835937 392.30027344 244.40566406 391.51265625 244.18652344 390.70117188 C243.01728333 386.29592739 243.01728333 386.29592739 240.33105469 382.71289062 C239.93917969 381.74351562 239.54730469 380.77414062 239.14355469 379.77539062 C235.1148214 370.11444812 228.60517453 362.11585962 221.33105469 354.71289062 C220.52023437 353.87757813 219.70941406 353.04226563 218.87402344 352.18164062 C198.24776205 332.14293391 167.71350512 323.55343898 139.54199219 323.57104492 C138.62025208 323.5675705 137.69851196 323.56409607 136.74884033 323.56051636 C134.76609893 323.55321852 132.78334968 323.5478417 130.80059814 323.54422569 C127.65492316 323.53699179 124.50939808 323.52127676 121.36376953 323.50288391 C112.42645246 323.45072178 103.48922407 323.40243344 94.55175781 323.38696289 C89.06762919 323.37685217 83.58388922 323.34746057 78.09991455 323.30564308 C76.02047674 323.29338436 73.94098397 323.28820238 71.86151123 323.29044151 C68.94729383 323.29280874 66.03418417 323.27052406 63.12011719 323.24291992 C61.85110565 323.25282204 61.85110565 323.25282204 60.55645752 323.26292419 C51.35695955 323.12080712 43.7503843 319.86401937 37.08886719 313.58007812 C29.41879129 305.43275306 28.70186353 298.0563949 28.92871094 287.21679688 C29.3980727 279.14744931 33.57148874 274.15040022 39.26855469 268.77539062 C46.5193862 262.89446812 53.93515428 261.5642838 63.10864258 261.57104492 C64.26123817 261.56583328 64.26123817 261.56583328 65.43711853 261.56051636 C67.10289352 261.55318038 68.76867815 261.54782353 70.43446541 261.54422569 C73.09102688 261.53700799 75.74740913 261.52129566 78.40391541 261.50288391 C85.95683092 261.4507113 93.50965294 261.40262542 101.06274414 261.38696289 C105.69179701 261.37673821 110.32040345 261.34704566 114.94927788 261.30564308 C116.69388855 261.293519 118.43856286 261.28817684 120.18321419 261.29044151 C136.17007163 261.3060649 152.65261709 259.71373041 167.33105469 252.90039062 C168.10956787 252.55492187 168.88808105 252.20945312 169.69018555 251.85351562 C190.96924604 242.22071054 206.70600282 228.44239048 217.33105469 207.71289062 C217.82496704 206.7929834 217.82496704 206.7929834 218.32885742 205.85449219 C224.39025407 194.30595166 228.19544835 180.74804945 228.33105469 167.71289062 C228.40324219 166.50503906 228.47542969 165.2971875 228.54980469 164.05273438 C229.57603322 142.07590308 223.40971096 120.34552155 210.33105469 102.71289062 C209.7396167 101.91383301 209.7396167 101.91383301 209.13623047 101.09863281 C198.38965326 86.84046218 184.51363974 77.8757477 168.33105469 70.71289062 C166.96980469 70.09994141 166.96980469 70.09994141 165.58105469 69.47460938 C146.27086261 61.66001602 125.74089551 62.13859846 105.31019616 62.20418048 C101.18780572 62.21233558 97.06552151 62.19530442 92.94316101 62.18043518 C83.39494349 62.14988317 73.84683375 62.14810581 64.29857635 62.15008545 C52.10546651 62.15148696 39.91243778 62.14103686 27.71938771 62.10150772 C22.83283242 62.08665202 17.94658444 62.08678311 13.06002486 62.09898555 C10.02109561 62.10371405 6.98228296 62.09615146 3.94337273 62.08544159 C2.54259783 62.08304774 1.14180294 62.08572702 -0.25894928 62.09404945 C-11.59981846 62.15737359 -20.90343164 61.10748797 -29.45019531 53.02929688 C-35.41843101 46.744947 -38.78332054 40.00792583 -39.16894531 31.27539062 C-38.79588036 22.75506841 -35.99429318 14.73212248 -29.89850998 8.62734222 C-20.90407469 0.90412554 -11.36217237 -0.15239797 0 0 Z " fill="#050706" transform="translate(757.6689453125,168.287109375)"/>
<path d="M0 0 C7.79625 0.061875 7.79625 0.061875 15.75 0.125 C15.75 17.285 15.75 34.445 15.75 52.125 C11.46 52.785 7.17 53.445 2.75 54.125 C-8.07930401 57.47692743 -15.43731216 63.44966188 -20.96875 73.40625 C-26.00302951 84.08874554 -27.39563828 94.05392858 -27.42358398 105.71972656 C-27.4336145 107.46257431 -27.4336145 107.46257431 -27.44384766 109.2406311 C-27.45788 111.76144623 -27.46977981 114.28227393 -27.47979546 116.80310822 C-27.49626623 120.80756 -27.51930799 124.81194288 -27.54469299 128.81634521 C-27.61559693 140.20173259 -27.67531116 151.58716516 -27.72680664 162.97265625 C-27.75534658 169.26629176 -27.79085884 175.55985224 -27.83346039 181.85340858 C-27.8555895 185.1727441 -27.87305926 188.49194561 -27.88390923 191.81134796 C-27.9808151 221.05730395 -29.29348125 245.47518454 -48.25 269.125 C-48.86488281 269.90488281 -49.47976563 270.68476563 -50.11328125 271.48828125 C-58.60941512 281.67308769 -69.07618741 287.91171329 -80.87890625 293.49609375 C-84.27187031 295.0403107 -84.27187031 295.0403107 -87.25 297.125 C-86.22261719 297.5375 -85.19523438 297.95 -84.13671875 298.375 C-60.59028081 308.08199196 -43.41690717 324.94718579 -33.27734375 348.3671875 C-29.06536618 359.67386494 -28.10547398 370.91137754 -28.07641602 382.85839844 C-28.069729 384.0107196 -28.06304199 385.16304077 -28.05615234 386.35028076 C-28.04214918 388.84269933 -28.03024026 391.33513036 -28.02020454 393.82756805 C-28.00371539 397.78012499 -27.98067891 401.7326126 -27.95530701 405.68511963 C-27.88443463 416.91991276 -27.82446192 428.15474925 -27.77319336 439.38964844 C-27.74475425 445.60560078 -27.70930389 451.82147549 -27.66653961 458.03734612 C-27.64431809 461.31732241 -27.62688876 464.59721428 -27.61609077 467.87725067 C-27.60384894 471.54295147 -27.57966235 475.20840318 -27.55297852 478.87402344 C-27.55238937 479.94040039 -27.55180023 481.00677734 -27.55119324 482.10546875 C-27.39283542 498.63868114 -24.32680025 515.98650506 -12.3359375 528.05078125 C-4.01487949 535.80960561 4.25643085 536.82628617 15.75 539.125 C15.75 556.285 15.75 573.445 15.75 591.125 C10.738125 591.16625 5.72625 591.2075 0.5625 591.25 C-0.98977295 591.26820801 -2.5420459 591.28641602 -4.14135742 591.30517578 C-30.56517178 591.40935871 -55.56244731 584.29553236 -75.25 566.125 C-75.8790625 565.56425781 -76.508125 565.00351562 -77.15625 564.42578125 C-85.36040237 556.7250655 -91.91460321 546.98218468 -97.25 537.125 C-97.89388672 535.93777344 -97.89388672 535.93777344 -98.55078125 534.7265625 C-101.47001942 528.85193461 -103.31389663 522.81507877 -105 516.5 C-105.21084229 515.71246338 -105.42168457 514.92492676 -105.63891602 514.11352539 C-108.0842353 504.50369129 -108.39898241 495.09632625 -108.40771484 485.22412109 C-108.41551432 483.28267815 -108.42331783 481.34123522 -108.43127275 479.39979291 C-108.4389458 477.3285455 -108.44435163 475.25730236 -108.44923019 473.1860466 C-108.46000372 468.84612852 -108.4802735 464.50628582 -108.50234985 460.16641235 C-108.56395886 447.83054072 -108.61817209 435.49467479 -108.65136719 423.15869141 C-108.6698132 416.33326831 -108.69887035 409.50797325 -108.7393719 402.68264449 C-108.7602716 399.08230601 -108.77587466 395.4821276 -108.77817917 391.88172531 C-108.21556282 360.60295495 -108.21556282 360.60295495 -122.5546875 333.6484375 C-131.21721479 325.86413879 -139.77288726 323.21174777 -151.25 321.125 C-151.25 304.295 -151.25 287.465 -151.25 270.125 C-146.96 269.135 -142.67 268.145 -138.25 267.125 C-126.99282288 262.13602378 -119.73933274 256.21182628 -114.76171875 244.67578125 C-110.68400127 233.54926601 -108.95347451 223.89707606 -108.97875977 212.05639648 C-108.97073603 210.08745121 -108.96270991 208.11850595 -108.95459449 206.14956105 C-108.94777149 204.04843636 -108.94574152 201.94735518 -108.94503975 199.84622002 C-108.9430835 195.44298885 -108.92494333 191.0399118 -108.90428162 186.63673401 C-108.85529457 175.69664763 -108.82431105 164.75651952 -108.80297852 153.81634521 C-108.78637524 145.31575577 -108.76332997 136.81529957 -108.71995777 128.31479889 C-108.70190566 124.66243741 -108.68954478 121.01025714 -108.69125557 117.35784721 C-108.70249942 83.32447995 -103.11025654 53.28269203 -78.625 28 C-57.70287135 7.21119701 -28.67015118 -0.32351978 0 0 Z " fill="#040605" transform="translate(676.25,168.875)"/>
<path d="M0 0 C-1.39347376 3.15204981 -3.02485079 5.26171773 -5.4765625 7.671875 C-6.48203125 8.66767578 -6.48203125 8.66767578 -7.5078125 9.68359375 C-8.20648437 10.36550781 -8.90515625 11.04742187 -9.625 11.75 C-10.33140625 12.44738281 -11.0378125 13.14476562 -11.765625 13.86328125 C-13.50598703 15.58012488 -15.25084981 17.29211832 -17 19 C-17 12.27094727 -8.19570779 6.06241268 -3.69921875 1.46875 C-2 0 -2 0 0 0 Z " fill="#2B2B29" transform="translate(606,191)"/>
<path d="M0 0 C0.66 0.33 1.32 0.66 2 1 C-1.63 4.63 -5.26 8.26 -9 12 C-9 8.47601214 -8.44884893 7.98495633 -6.1875 5.4375 C-5.40439453 4.53837891 -5.40439453 4.53837891 -4.60546875 3.62109375 C-3 2 -3 2 0 0 Z " fill="#2F302E" transform="translate(733,703)"/>
<path d="M0 0 C-1.40844718 3.21524305 -3.10344786 5.32183868 -5.625 7.75 C-6.57246094 8.67039062 -6.57246094 8.67039062 -7.5390625 9.609375 C-8.02117188 10.06828125 -8.50328125 10.5271875 -9 11 C-9 7.25983417 -8.0658409 6.54723807 -5.625 3.8125 C-4.99851562 3.09707031 -4.37203125 2.38164062 -3.7265625 1.64453125 C-2 0 -2 0 0 0 Z " fill="#313330" transform="translate(800,436)"/>
<path d="M0 0 C0.66 0 1.32 0 2 0 C0.44499019 3.81684226 -2.03595495 6.19195732 -5 9 C-5.66 8.67 -6.32 8.34 -7 8 C-5.88200014 6.66079162 -4.75538103 5.32877444 -3.625 4 C-2.68527344 2.88625 -2.68527344 2.88625 -1.7265625 1.75 C-1.15679688 1.1725 -0.58703125 0.595 0 0 Z " fill="#323331" transform="translate(730,175)"/>
<path d="M0 0 C-1 3 -1 3 -3.3125 4.25 C-6.16597407 5.04631835 -7.24802325 4.8214856 -10 4 C-8.71086513 3.32845067 -7.41859796 2.66291141 -6.125 2 C-5.40570312 1.62875 -4.68640625 1.2575 -3.9453125 0.875 C-2 0 -2 0 0 0 Z " fill="#40413F" transform="translate(940,415)"/>
</svg>
